<?xml version="1.0" encoding="UTF-8" standalone="no"?>
<!-- Created with Inkscape (http://www.inkscape.org/) -->

<svg
   xmlns:dc="http://purl.org/dc/elements/1.1/"
   xmlns:cc="http://creativecommons.org/ns#"
   xmlns:rdf="http://www.w3.org/1999/02/22-rdf-syntax-ns#"
   xmlns:svg="http://www.w3.org/2000/svg"
   xmlns="http://www.w3.org/2000/svg"
   xmlns:sodipodi="http://sodipodi.sourceforge.net/DTD/sodipodi-0.dtd"
   xmlns:inkscape="http://www.inkscape.org/namespaces/inkscape"
   width="1000"
   height="1000"
   viewBox="0 0 1000 1000"
   id="svg1901"
   sodipodi:version="0.32"
   inkscape:version="0.48.2 r9819"
   sodipodi:docname="3.svg"
   version="1.1">
  <defs
     id="defs1903" />
  <sodipodi:namedview
     id="base"
     pagecolor="#ffffff"
     bordercolor="#666666"
     borderopacity="1.0"
     inkscape:pageopacity="0.0"
     inkscape:pageshadow="2"
     inkscape:zoom="0.7"
     inkscape:cx="272.55536"
     inkscape:cy="477.50784"
     inkscape:document-units="px"
     inkscape:current-layer="layer1"
     inkscape:window-width="1920"
     inkscape:window-height="1057"
     inkscape:window-x="-8"
     inkscape:window-y="-8"
     showgrid="false"
     inkscape:showpageshadow="false"
     inkscape:window-maximized="1" />
  <metadata
     id="metadata1906">
    <rdf:RDF>
      <cc:Work
         rdf:about="">
        <dc:format>image/svg+xml</dc:format>
        <dc:type
           rdf:resource="http://purl.org/dc/dcmitype/StillImage" />
        <dc:title></dc:title>
      </cc:Work>
    </rdf:RDF>
  </metadata>
  <g
     inkscape:label="Taso 1"
     inkscape:groupmode="layer"
     id="layer1"
     transform="translate(0,-52.362183)">
    <path
       style="fill:none;stroke:#000000;stroke-width:14.10000038;stroke-linecap:butt;stroke-linejoin:round;stroke-miterlimit:4;stroke-opacity:1;stroke-dasharray:none"
       d="m 385.40714,590.71394 c -39.76819,165.43567 -30.22383,305.41971 -28.6331,346.77864 1.59072,41.35891 15.90729,49.31255 -23.86092,55.67546 -39.76819,6.36289 -79.53638,23.86086 -50.90328,38.17746 37.42776,18.7139 101.80656,6.3629 127.25821,-9.5444 25.45164,-15.9073 14.31656,-58.85688 9.54438,-103.39726 -4.7722,-44.54037 0,-184.52442 12.72581,-224.2926 12.72583,-39.7682 20.67945,-117.71386 46.13111,-87.49003 25.45164,30.22382 42.94965,22.27019 38.17745,165.43569 -4.77218,143.16548 36.58675,202.02241 -3.18145,216.33896 -39.76818,14.31654 -81.12711,41.35884 -42.94964,42.94964 38.17746,1.5907 117.71384,-1.5908 116.12312,-30.2238 -1.59074,-28.63312 11.1351,-50.9033 -1.59072,-171.79861 -12.72583,-120.89531 -7.95364,-225.88333 -17.49801,-264.0608 -9.54437,-38.17746 -22.27019,-149.5284 -12.72582,-190.88733 9.54436,-41.35891 -7.95364,-39.76818 -3.18146,-62.03836 4.77219,-22.2702 6.36291,-57.26621 47.72183,-28.63311 41.35892,28.63311 66.81056,54.08475 69.99202,84.30857 3.18145,30.22382 11.13509,101.80658 -46.1311,111.35094 -57.2662,9.54437 -62.03839,7.95363 -63.62912,28.63309 -1.59072,20.67946 -4.77217,44.54038 15.90729,38.17748 20.67945,-6.36292 84.30856,-33.4053 104.98802,-49.31258 20.67946,-15.90726 63.62911,-100.21584 33.40529,-147.93766 -30.22382,-47.72184 -39.76819,-68.40129 -79.53639,-90.67148 -45.78032,-25.63697 -69.99202,-39.7682 -95.44367,-39.7682 -25.45164,0 -28.63309,-49.31255 -15.90727,-69.99201 12.72582,-20.67946 12.06741,-71.283967 -22.27018,-84.308573 -46.1311,-17.498005 -90.46487,38.909893 -65.21985,71.582743 36.69832,47.49604 44.18732,58.85693 4.77219,87.49002 -30.59122,22.22298 -39.85271,0.42431 -74.76421,34.99602 -33.74657,33.41813 -52.49401,46.1311 -68.40127,60.44764 -15.90728,14.31657 -57.40288,62.14742 -23.86094,127.25822 27.04238,52.49402 79.08076,60.60981 98.16949,63.79127 19.08874,3.18146 30.67946,18.92657 27.49802,-3.34361 -3.18146,-22.27019 15.90726,-39.7682 -25.45165,-47.72183 -41.35892,-7.95364 -82.71784,-39.7682 -74.76421,-60.44766 7.95364,-20.67946 33.40528,-55.67546 60.44765,-76.35493 35.5835,-27.21091 62.03839,-44.54037 62.03839,-1.59073 0,42.94966 -27.04237,227.47408 -34.99601,270.42372 z"
       id="path2988"
       inkscape:connector-curvature="0"
       sodipodi:nodetypes="csssssssssssssssssssssssssssssssssssssc" />
  </g>
</svg>
