<?xml version="1.0" encoding="UTF-8" standalone="no"?>
<!-- Created with Inkscape (http://www.inkscape.org/) -->

<svg
   xmlns:dc="http://purl.org/dc/elements/1.1/"
   xmlns:cc="http://creativecommons.org/ns#"
   xmlns:rdf="http://www.w3.org/1999/02/22-rdf-syntax-ns#"
   xmlns:svg="http://www.w3.org/2000/svg"
   xmlns="http://www.w3.org/2000/svg"
   xmlns:sodipodi="http://sodipodi.sourceforge.net/DTD/sodipodi-0.dtd"
   xmlns:inkscape="http://www.inkscape.org/namespaces/inkscape"
   width="1000"
   height="1000"
   viewBox="0 0 1000 1000"
   id="svg1901"
   sodipodi:version="0.32"
   inkscape:version="0.48.2 r9819"
   sodipodi:docname="1.svg"
   version="1.1">
  <defs
     id="defs1903" />
  <sodipodi:namedview
     id="base"
     pagecolor="#ffffff"
     bordercolor="#666666"
     borderopacity="1.0"
     inkscape:pageopacity="0.0"
     inkscape:pageshadow="2"
     inkscape:zoom="0.98994949"
     inkscape:cx="583.27708"
     inkscape:cy="346.24857"
     inkscape:document-units="px"
     inkscape:current-layer="layer1"
     inkscape:window-width="1920"
     inkscape:window-height="1058"
     inkscape:window-x="-8"
     inkscape:window-y="-8"
     showgrid="false"
     inkscape:showpageshadow="false"
     inkscape:window-maximized="1" />
  <metadata
     id="metadata1906">
    <rdf:RDF>
      <cc:Work
         rdf:about="">
        <dc:format>image/svg+xml</dc:format>
        <dc:type
           rdf:resource="http://purl.org/dc/dcmitype/StillImage" />
        <dc:title></dc:title>
      </cc:Work>
    </rdf:RDF>
  </metadata>
  <g
     inkscape:label="Taso 1"
     inkscape:groupmode="layer"
     id="layer1"
     transform="translate(0,-52.362183)">
    <path
       style="fill:none;stroke:#000000;stroke-width:12.37605667;stroke-linecap:round;stroke-linejoin:round;stroke-miterlimit:4;stroke-opacity:1;stroke-dasharray:none"
       d="m 74.399326,456.27336 c 18.176232,13.29968 14.629649,19.06288 26.156054,19.5062 11.52639,0.44332 39.01241,5.76319 59.40526,17.28959 20.39285,11.5264 98.41768,59.40527 108.6141,68.27172 10.19643,8.86646 26.59937,-3.54658 57.63198,9.75311 31.0326,13.29968 57.18865,24.82608 71.37498,25.71272 14.18633,0.88665 31.47593,-5.31987 53.19874,-5.31987 21.72283,0 19.06289,6.20652 50.98213,9.30978 31.91926,3.10326 57.18865,0.44333 68.71505,-7.53649 11.5264,-7.97981 50.98213,-25.2694 74.92157,-36.35247 23.93944,-11.08308 29.25931,-24.82608 45.21893,-24.38276 15.95962,0.44332 33.24922,-2.65994 50.09545,-11.96972 16.84628,-9.30978 33.24929,-9.7531 58.962,-7.09316 25.7127,2.65993 52.43556,8.37242 63.51862,3.05255 11.08307,-5.31988 16.72281,-16.79557 28.69248,-19.01218 11.96975,-2.21661 15.51633,-10.19642 23.49616,-10.19642 7.97984,0 17.28962,2.65993 9.30978,8.86645 -7.97984,6.20652 -13.74304,6.20652 -18.17621,11.52639 -4.43327,5.31988 14.62964,-4.43322 9.75303,3.10327 -4.87652,7.53648 -1.77329,13.743 -17.73287,17.28959 -15.95967,3.54658 -17.92919,11.08307 -24.57908,11.5264 -6.64981,0.44331 -14.36055,-0.0728 -32.98011,0.37052 -18.61956,0.44332 -43.07509,-2.58714 -61.69465,-2.58714 -18.61956,0 -21.72287,5.31987 -31.47591,11.5264 -9.75312,6.20652 -16.84631,8.86645 -27.48605,11.08306 -10.63975,2.21662 -18.17624,6.64985 -20.39286,11.5264 -2.21661,4.87656 -16.43156,15.05088 -12.41955,16.38085 10.59558,3.5124 3.21372,14.61406 38.73677,-8.29963 11.23206,-7.2451 46.33702,-10.79186 55.05791,3.12536 4.91528,7.84405 14.36054,28.37266 12.58725,33.69254 -1.77328,5.31987 -10.37062,16.10523 -15.69057,20.53845 -5.31986,4.43324 -20.19652,5.05076 -27.73301,8.15403 -7.53649,3.10326 -23.05278,-3.98991 -21.72281,4.43323 1.32996,8.42313 18.61958,24.82608 32.36253,27.48602 13.74304,2.65993 30.14597,18.35044 46.99224,17.90712 16.84627,-0.44332 38.64191,1.32997 59.92145,2.65994 21.27944,1.32997 41.35249,0.37052 55.78581,-9.92732 10.26466,-7.3236 23.05282,-0.88664 23.93951,3.54659 0.8866,4.43322 -4.43326,11.08307 12.85635,12.85636 17.28953,1.77329 25.26936,7.97982 28.81594,11.96972 3.54657,3.98991 -3.98992,13.74301 -17.73287,13.74301 -13.74304,0 -18.1763,-2.21661 -36.79586,-1.7733 -18.61956,0.44333 -47.23918,-2.34011 -63.19885,-0.56682 -15.95958,1.77329 -43.44566,1.40277 -60.73519,0.51612 -17.28961,-0.88664 -28.39476,-3.98991 -45.24103,-11.96971 -16.84627,-7.97981 -43.17655,-15.4656 -55.58959,-23.88874 -12.41304,-8.42314 -6.57705,1.52627 -22.53667,-18.86657"
       id="path4837"
       inkscape:connector-curvature="0"
       sodipodi:nodetypes="csssssssssssssssssssssssssssssssssssscssssssssc" />
    <path
       style="fill:none;stroke:#000000;stroke-width:12.37605667;stroke-linecap:round;stroke-linejoin:round;stroke-miterlimit:4;stroke-opacity:1;stroke-dasharray:none"
       d="m 72.62603,454.50006 c -19.506201,21.72282 -31.475919,34.57919 -40.342382,47.87887 -8.866453,13.29969 -15.072975,20.83617 -13.299688,40.78571 1.773296,19.94953 5.319878,26.15605 12.85637,23.05278 7.536485,-3.10325 16.402947,-6.64984 27.929339,-19.06288 11.526392,-12.41304 11.526392,-28.81599 21.279497,-26.59937 9.753105,2.21662 18.619558,-0.88665 34.579184,4.87655 15.95963,5.7632 23.05279,15.5163 39.89906,26.59937 16.84627,11.08308 28.37267,19.50621 46.5489,29.70264 18.17624,10.19643 26.59937,19.50621 38.12577,27.04269 11.5264,7.53649 40.34238,34.13587 65.16846,43.88897 24.82608,9.7531 59.40527,30.14595 82.45805,36.35247 23.0528,6.20653 50.98213,11.5264 73.14828,9.30978 22.16614,-2.21661 70.93166,-0.44332 87.3346,-1.32997 16.40295,-0.88664 94.42778,0.88665 113.93398,-0.44331 19.50621,-1.32997 20.39286,-10.19644 31.47593,-15.95963"
       id="path4839" />
    <path
       style="fill:none;stroke:#000000;stroke-width:12.37605667;stroke-linecap:round;stroke-linejoin:round;stroke-miterlimit:4;stroke-opacity:1;stroke-dasharray:none"
       d="m 241.53204,613.20965 c -36.79579,0.88665 -65.16845,-2.21661 -74.92156,-2.65994 -9.7531,-0.44332 -14.18633,2.65994 -42.11567,-13.29968 -27.929343,-15.95962 -33.249213,-19.06289 -43.445644,-19.94953 -10.196423,-0.88664 -13.743005,-9.30978 -21.279497,5.31987 -7.536492,14.62966 -15.072975,38.12577 -15.072975,48.3222 0,10.19642 -5.319879,35.46583 -0.886653,39.89905 4.433236,4.43324 13.299688,6.20653 21.722824,-2.65994 8.423135,-8.86645 6.206522,-27.92933 16.84627,-30.14595 10.639749,-2.21661 47.878875,8.42314 58.961935,11.96972 11.08308,3.54658 20.83618,8.86645 54.97204,12.41304 34.13587,3.54658 52.75543,8.42313 85.118,9.7531 32.36256,1.32997 43.00232,6.64985 74.47824,7.09317"
       id="path4841" />
  </g>
</svg>
