<?xml version="1.0" encoding="UTF-8" standalone="no"?>
<!-- Created with Inkscape (http://www.inkscape.org/) -->

<svg
   xmlns:dc="http://purl.org/dc/elements/1.1/"
   xmlns:cc="http://creativecommons.org/ns#"
   xmlns:rdf="http://www.w3.org/1999/02/22-rdf-syntax-ns#"
   xmlns:svg="http://www.w3.org/2000/svg"
   xmlns="http://www.w3.org/2000/svg"
   xmlns:sodipodi="http://sodipodi.sourceforge.net/DTD/sodipodi-0.dtd"
   xmlns:inkscape="http://www.inkscape.org/namespaces/inkscape"
   width="1000"
   height="1000"
   viewBox="0 0 1000 1000"
   id="svg1901"
   sodipodi:version="0.32"
   inkscape:version="0.48.2 r9819"
   sodipodi:docname="2.svg"
   version="1.1">
  <defs
     id="defs1903" />
  <sodipodi:namedview
     id="base"
     pagecolor="#ffffff"
     bordercolor="#666666"
     borderopacity="1.0"
     inkscape:pageopacity="0.0"
     inkscape:pageshadow="2"
     inkscape:zoom="0.7"
     inkscape:cx="501.12679"
     inkscape:cy="477.50784"
     inkscape:document-units="px"
     inkscape:current-layer="layer1"
     inkscape:window-width="1920"
     inkscape:window-height="1058"
     inkscape:window-x="-8"
     inkscape:window-y="-8"
     showgrid="false"
     inkscape:showpageshadow="false"
     inkscape:window-maximized="1" />
  <metadata
     id="metadata1906">
    <rdf:RDF>
      <cc:Work
         rdf:about="">
        <dc:format>image/svg+xml</dc:format>
        <dc:type
           rdf:resource="http://purl.org/dc/dcmitype/StillImage" />
        <dc:title></dc:title>
      </cc:Work>
    </rdf:RDF>
  </metadata>
  <g
     inkscape:label="Taso 1"
     inkscape:groupmode="layer"
     id="layer1"
     transform="translate(0,-52.362183)">
    <path
       style="fill:none;stroke:#000000;stroke-width:16.856493;stroke-linecap:round;stroke-linejoin:round;stroke-miterlimit:4;stroke-opacity:1;stroke-dasharray:none"
       d="m 509.13146,97.943418 c -9.39318,29.033462 -7.25836,37.145772 -17.07851,46.111982 -9.82015,8.96623 -41.4154,37.14577 -51.66251,46.53895 -10.2471,9.39318 -30.31436,32.87614 -34.15702,40.98843 -3.84267,8.1123 -2.56178,19.64029 -3.84267,35.01096 -1.28089,15.37066 2.98874,38.42665 2.56178,53.79732 -0.42697,15.37066 9.82014,29.8874 16.2246,39.70753 6.40443,9.82016 -2.56179,25.19081 0,40.98845 2.56176,15.79762 7.68532,45.25806 12.38191,63.61746 4.69659,18.3594 6.8314,75.14546 6.8314,90.51612 0,15.37067 -14.51673,56.78606 -20.49421,68.74102 -5.97748,11.95496 -18.78637,42.26932 -27.32563,55.07821 -8.53925,12.80888 -25.1908,30.74132 -27.32561,42.69627 -2.13482,11.95496 -3.84267,38.42666 -8.96623,48.24682 -5.12355,9.82014 -19.64028,26.89865 -26.4717,44.40413 -6.8314,17.50548 -18.35939,37.9997 -19.21331,50.38161 -0.85394,12.38192 -9.3932,37.14577 -15.37068,45.68503 -5.97748,8.53925 -17.0785,17.07852 -24.76384,29.03347 -7.68532,11.95496 -20.06726,26.4717 -24.33688,36.29184 -4.26963,9.82019 -6.83141,23.90989 0.42696,23.05602 7.25837,-0.85398 23.90992,-8.96627 40.56147,-22.62905 16.65155,-13.66281 26.4717,-22.62902 35.43793,-33.73007 8.96621,-11.10103 14.51672,-20.49422 14.08977,-35.43792 -0.42697,-14.9437 -0.85394,-30.74131 8.96621,-41.41538 9.82015,-10.67407 25.61778,-37.57274 35.43792,-52.51643 9.82014,-14.94371 17.50547,-29.8874 22.62903,-40.56148 5.12355,-10.67407 24.76385,-40.1345 32.87614,-50.80859 8.11229,-10.67407 22.62903,-32.02221 26.89866,-40.13449 4.26964,-8.1123 17.50548,-40.56148 29.46044,-17.93244 11.95496,22.62903 18.78635,46.11198 32.44917,61.05568 13.66281,14.94369 25.19081,49.10073 42.26933,55.93214 17.0785,6.83139 26.47168,14.94369 33.73005,29.46043 7.25838,14.51673 11.10105,29.46043 21.34814,46.11198 10.24712,16.65156 21.77512,22.20207 22.20208,34.584 0.42696,12.38192 -15.79762,11.95496 -2.56177,29.8874 13.23584,17.93244 26.04473,37.14576 37.14575,49.52769 11.10104,12.38194 13.23585,22.62902 23.056,23.48299 9.82014,0.85387 30.74132,0.85387 28.60651,-13.23583 -2.13481,-14.08983 -5.12355,-26.04479 -13.23585,-38.85366 -8.11229,-12.8089 -8.11229,-20.06726 -20.06725,-33.73008 -11.95496,-13.6628 -17.93244,-23.05599 -23.48295,-37.57272 -5.55053,-14.51674 -12.80889,-37.14577 -16.2246,-48.67377 -3.4157,-11.528 -9.82013,-43.55022 -20.06725,-52.94339 -10.2471,-9.39318 -25.19081,-65.75228 -35.86488,-81.12294 -10.67407,-15.37067 -17.07851,-29.8874 -25.1908,-35.43792 -8.11231,-5.55052 -2.98874,-32.44918 -5.97748,-53.37036 -2.98874,-20.92118 -7.25837,-29.8874 -10.24712,-46.96591 -2.98873,-17.07851 13.66282,-76.42634 13.66282,-86.24649 0,-9.82016 2.13482,-40.56147 2.13482,-53.37036 0,-12.80889 0.85391,-17.93244 12.80887,-32.87615 11.95496,-14.94369 24.76385,-61.48264 28.17956,-73.4376 3.4157,-11.95496 14.08977,-34.15703 12.38191,-40.56147 -1.70784,-6.40443 -8.11228,-30.74133 -20.92117,-40.56147 -12.80889,-9.82015 -31.59526,-49.52769 -36.7188,-52.51643 -5.12356,-2.98874 -17.50549,-21.7751 -24.76386,-25.61778 -7.25837,-3.84266 -4.69659,-11.52798 -9.39317,-24.76383 -4.69659,-13.23585 -6.40444,-29.887401 -13.66281,-31.168291 -7.25837,-1.280889 -11.10104,-2.988745 -15.37067,7.258369 z"
       id="path4864"
       inkscape:connector-curvature="0" />
    <path
       style="fill:none;stroke:#000000;stroke-width:16.856493;stroke-linecap:round;stroke-linejoin:round;stroke-miterlimit:4;stroke-opacity:1;stroke-dasharray:none"
       d="m 512.97412,165.83051 c -13.23584,7.25837 -9.82014,6.8314 -25.61776,20.92117 -15.79763,14.08978 -27.75259,29.03348 -37.14577,39.70755 -9.39318,10.67407 -20.06725,17.50548 -15.37066,25.19081 4.69659,7.68533 9.39318,14.9437 11.10103,29.88741 1.70785,14.94369 1.70785,58.92086 2.56178,62.33656 0.85392,3.41571 13.23586,11.95497 18.78636,12.38193 5.55052,0.42695 12.38193,-2.98874 12.80889,-12.8089 0.42696,-9.82013 3.84267,-18.78635 -2.98874,-28.60651 -6.83141,-9.82014 -8.53926,-25.1908 -5.97748,-28.17954 2.56179,-2.98874 0.42696,-22.20207 3.4157,-26.89866 2.98874,-4.69659 17.50548,-17.93244 23.90992,-17.93244 6.40445,0 27.75259,4.69659 29.88739,6.40444 2.13483,1.70786 5.55053,6.83141 5.55053,12.38193 0,5.55051 1.28089,15.79762 0.42695,22.62903 -0.85391,6.8314 -3.4157,22.62903 -5.12354,29.8874 -1.70785,7.25837 -4.26964,15.79762 -8.96622,20.49422 -4.69659,4.69659 -8.1123,11.52799 -4.69659,14.9437 3.41569,3.4157 10.67407,8.11228 17.07851,2.56177 6.40444,-5.55051 13.6628,-10.67407 20.92117,-17.50547 7.25837,-6.83142 8.96623,-23.90992 16.2246,-38.42666 7.25837,-14.51674 14.08977,-30.31435 15.37066,-34.15703 1.28089,-3.84267 -2.13481,-17.93244 -13.23585,-32.44918 -11.10104,-14.51673 -19.21332,-37.57272 -27.75258,-43.5502 -8.53927,-5.97748 -6.40444,-14.94371 -17.93244,-18.78637 -11.528,-3.84266 -3.41571,-3.84266 -12.80889,-0.42696"
       id="path4866"
       inkscape:connector-curvature="0"
       sodipodi:nodetypes="cssssssssssssssssssssssssc" />
  </g>
</svg>
