<?xml version="1.0" encoding="UTF-8" standalone="no"?>
<!-- Created with Inkscape (http://www.inkscape.org/) -->

<svg
   xmlns:dc="http://purl.org/dc/elements/1.1/"
   xmlns:cc="http://creativecommons.org/ns#"
   xmlns:rdf="http://www.w3.org/1999/02/22-rdf-syntax-ns#"
   xmlns:svg="http://www.w3.org/2000/svg"
   xmlns="http://www.w3.org/2000/svg"
   xmlns:sodipodi="http://sodipodi.sourceforge.net/DTD/sodipodi-0.dtd"
   xmlns:inkscape="http://www.inkscape.org/namespaces/inkscape"
   width="1000"
   height="1000"
   viewBox="0 0 1000 1000"
   id="svg1901"
   sodipodi:version="0.32"
   inkscape:version="0.48.2 r9819"
   sodipodi:docname="tyhja.svg"
   version="1.1">
  <defs
     id="defs1903" />
  <sodipodi:namedview
     id="base"
     pagecolor="#ffffff"
     bordercolor="#666666"
     borderopacity="1.0"
     inkscape:pageopacity="0.0"
     inkscape:pageshadow="2"
     inkscape:zoom="0.6720829"
     inkscape:cx="828.72751"
     inkscape:cy="430.75664"
     inkscape:document-units="px"
     inkscape:current-layer="layer1"
     inkscape:window-width="1920"
     inkscape:window-height="1058"
     inkscape:window-x="-8"
     inkscape:window-y="-8"
     showgrid="false"
     inkscape:showpageshadow="false"
     inkscape:window-maximized="1" />
  <metadata
     id="metadata1906">
    <rdf:RDF>
      <cc:Work
         rdf:about="">
        <dc:format>image/svg+xml</dc:format>
        <dc:type
           rdf:resource="http://purl.org/dc/dcmitype/StillImage" />
        <dc:title></dc:title>
      </cc:Work>
    </rdf:RDF>
  </metadata>
  <g
     inkscape:label="Taso 1"
     inkscape:groupmode="layer"
     id="layer1"
     transform="translate(0,-52.362183)">
    <path
       style="fill:none;stroke:#000000;stroke-width:22.5377121;stroke-linecap:round;stroke-linejoin:round;stroke-miterlimit:4;stroke-opacity:1;stroke-dasharray:none"
       d="m 222.83428,591.46119 c 10.09031,-87.44928 20.1806,-166.48996 3.36344,-178.26198 -16.81718,-11.77203 -102.58473,60.54181 -124.44704,80.72241 -21.86232,20.1806 -45.406365,13.45373 -53.814945,30.2709 -8.408581,16.81716 30.270896,50.4515 52.133225,36.99776 21.86232,-13.45373 38.67948,-63.90523 58.86009,-75.67726 20.18059,-11.772 18.49888,58.8601 -1.68172,80.72242 -20.1806,21.86231 -20.1806,21.86231 -20.1806,21.86231"
       id="path4801"
       inkscape:connector-curvature="0" />
    <path
       id="path4805"
       style="fill:none;stroke:#000000;stroke-width:22.5377121;stroke-linecap:round;stroke-linejoin:round;stroke-miterlimit:4;stroke-opacity:1;stroke-dasharray:none"
       d="m 133.7033,465.33242 c -52.133227,0 -112.675037,26.90747 -107.629882,82.40413 m 3.363426,5.04515 c 25.225758,48.76979 62.223523,72.31383 80.722416,79.0407 18.49889,6.72687 8.40858,62.22352 26.90747,73.99553 18.49889,11.77202 92.49441,40.36121 161.4448,43.72465 68.9504,3.36342 195.07917,-5.04516 238.8038,-18.49889 43.72463,-13.45374 89.131,-90.81271 104.26644,-104.26644 15.13545,-13.45374 26.90748,-53.81495 40.36121,-72.31384 13.45374,-18.49887 11.77202,1.68173 35.31605,38.6795 23.54403,36.99776 62.22353,57.17836 72.31384,94.17615 10.09029,36.99776 -1.68173,68.95039 21.86231,68.95039 23.54403,0 75.67726,6.72686 105.94816,11.772 30.27089,5.04516 75.67726,-15.13545 53.81494,-28.58918 -21.86232,-13.45374 -57.17837,-10.09029 -95.85786,-50.4515 -38.6795,-40.36121 -72.31383,-87.44928 -75.67726,-110.99331 -3.36343,-23.54405 -47.08807,-134.53736 -63.90524,-141.26422 -16.81717,-6.72687 -35.31605,-18.49888 -55.49665,-5.04514 -20.1806,13.45373 -85.76757,80.72239 -105.94817,100.903 -20.18061,20.1806 -31.95261,40.3612 -62.22353,40.3612 -30.27089,0 -125.43216,7.54298 -177.56539,7.54298 -52.13322,0 -73.21443,-5.65723 -88.3499,-15.74753"
       inkscape:connector-curvature="0"
       sodipodi:nodetypes="cccssssssssssssssssssc" />
    <path
       style="fill:none;stroke:#000000;stroke-width:22.5377121;stroke-linecap:round;stroke-linejoin:round;stroke-miterlimit:4;stroke-opacity:1;stroke-dasharray:none"
       d="m 811.83328,602.87362 c 57.95349,75.59655 98.60079,55.02049 107.0238,65.40345 9.26669,11.42294 13.0807,26.16138 -23.78306,28.53968"
       id="path4818"
       inkscape:connector-curvature="0"
       sodipodi:nodetypes="csc" />
    <path
       style="fill:none;stroke:#000000;stroke-width:22.5377121;stroke-linecap:round;stroke-linejoin:round;stroke-miterlimit:4;stroke-opacity:1;stroke-dasharray:none"
       d="m 760.69969,656.38553 c 4.75661,24.97222 -5.94577,30.91799 29.72883,28.53968"
       id="path4820"
       inkscape:connector-curvature="0" />
  </g>
</svg>
