<?xml version="1.0" encoding="UTF-8" standalone="no"?>
<!-- Created with Inkscape (http://www.inkscape.org/) -->

<svg
   xmlns:dc="http://purl.org/dc/elements/1.1/"
   xmlns:cc="http://creativecommons.org/ns#"
   xmlns:rdf="http://www.w3.org/1999/02/22-rdf-syntax-ns#"
   xmlns:svg="http://www.w3.org/2000/svg"
   xmlns="http://www.w3.org/2000/svg"
   xmlns:sodipodi="http://sodipodi.sourceforge.net/DTD/sodipodi-0.dtd"
   xmlns:inkscape="http://www.inkscape.org/namespaces/inkscape"
   width="1000"
   height="1000"
   viewBox="0 0 1000 1000"
   id="svg1901"
   sodipodi:version="0.32"
   inkscape:version="0.48.2 r9819"
   sodipodi:docname="3.svg"
   version="1.1">
  <defs
     id="defs1903" />
  <sodipodi:namedview
     id="base"
     pagecolor="#ffffff"
     bordercolor="#666666"
     borderopacity="1.0"
     inkscape:pageopacity="0.0"
     inkscape:pageshadow="2"
     inkscape:zoom="0.24748737"
     inkscape:cx="1589.6302"
     inkscape:cy="-65.971578"
     inkscape:document-units="px"
     inkscape:current-layer="layer1"
     inkscape:window-width="1920"
     inkscape:window-height="1058"
     inkscape:window-x="-8"
     inkscape:window-y="-8"
     showgrid="false"
     inkscape:showpageshadow="false"
     inkscape:window-maximized="1" />
  <metadata
     id="metadata1906">
    <rdf:RDF>
      <cc:Work
         rdf:about="">
        <dc:format>image/svg+xml</dc:format>
        <dc:type
           rdf:resource="http://purl.org/dc/dcmitype/StillImage" />
        <dc:title></dc:title>
      </cc:Work>
    </rdf:RDF>
  </metadata>
  <g
     inkscape:label="Taso 1"
     inkscape:groupmode="layer"
     id="layer1"
     transform="translate(0,-52.362183)">
    <path
       style="fill:none;stroke:#000000;stroke-width:23.88677025;stroke-linecap:round;stroke-linejoin:round;stroke-miterlimit:4;stroke-opacity:1;stroke-dasharray:none"
       d="M 35.758931,156.68561 C 59.717073,110.48062 78.541337,93.367645 90.520416,91.656352 102.4995,89.945049 135.01413,96.79023 143.5706,108.76931 c 8.55649,11.97908 23.95816,56.4728 27.38076,68.45186 3.42259,11.97908 37.64851,42.78242 53.05019,47.91632 15.40167,5.13388 35.93722,15.40166 46.20501,34.22592 10.26777,18.82426 15.40166,47.91631 37.64851,75.29705 22.24687,27.38074 42.78242,75.29704 49.62762,85.56483 6.84518,10.26776 -3e-5,49.62759 -18.82429,41.07109 -53.05018,-5.13387 -107.81166,-13.69035 -135.1924,-18.82425 -27.38075,-5.13389 -47.91631,-3.42259 -59.8954,-17.11297 -11.97907,-13.69037 -5.13388,-44.4937 -22.24684,-65.02926 -17.11297,-20.53555 -34.225945,-70.16316 -17.11297,-58.18408 17.11297,11.97908 27.38074,29.09204 42.7824,53.0502 15.40169,23.95814 8.5565,42.7824 39.35984,42.7824 30.80334,0 54.76148,1.71131 70.16316,0 15.40166,-1.7113 -20.53556,-23.95814 -30.80335,-47.9163 -10.26776,-23.95814 -15.40166,-30.80332 -32.51463,-54.76149"
       id="path4881"
       inkscape:connector-curvature="0"
       sodipodi:nodetypes="csssssssc" />
    <path
       style="fill:none;stroke:#000000;stroke-width:23.88677025;stroke-linecap:round;stroke-linejoin:round;stroke-miterlimit:4;stroke-opacity:1;stroke-dasharray:none"
       d="m 32.33633,156.68561 c -3.422585,34.22593 15.40168,44.49372 22.246866,58.18409 6.845185,13.69037 30.803327,25.66945 29.092034,34.22593 -1.711291,8.55647 13.690372,-3.42259 27.38074,8.55647 13.69037,11.97908 25.66945,13.69037 35.93722,6.84519 10.26779,-6.84519 30.80335,15.40168 23.95817,25.66945 -6.84519,10.26778 -5.1339,3.4226 -18.82427,37.64853"
       id="path4883"
       inkscape:connector-curvature="0" />
    <path
       style="fill:none;stroke:#000000;stroke-width:23.88677025;stroke-linecap:round;stroke-linejoin:round;stroke-miterlimit:4;stroke-opacity:1;stroke-dasharray:none"
       d="m 342.081,468.14159 c 0,25.66945 8.55649,42.7824 22.24687,53.05018 13.69037,10.26778 39.35982,29.09204 41.07111,58.18408 1.71129,29.09205 6.84519,111.23428 8.55648,135.19242 1.71129,23.95816 -3.42259,39.35982 20.53555,39.35982 23.95816,0 66.74057,1.71129 92.41002,8.55648 25.66945,6.84518 27.38075,5.13389 63.31797,11.97908"
       id="path4885"
       inkscape:connector-curvature="0" />
    <path
       style="fill:none;stroke:#000000;stroke-width:23.88677025;stroke-linecap:round;stroke-linejoin:round;stroke-miterlimit:4;stroke-opacity:1;stroke-dasharray:none"
       d="m 174.37395,452.73991 c 29.09205,85.56482 44.49371,118.07946 68.45186,189.95392 23.95815,71.87444 30.80333,119.79074 46.205,157.43926 15.40168,37.64854 25.66944,61.60668 39.35982,68.45187 13.69037,6.84518 87.27612,3.42259 128.34723,-1.71129 41.07113,-5.1339 65.02928,-6.8452 133.48114,-10.26779"
       id="path4887"
       inkscape:connector-curvature="0" />
    <path
       style="fill:none;stroke:#000000;stroke-width:23.88677025;stroke-linecap:round;stroke-linejoin:round;stroke-miterlimit:4;stroke-opacity:1;stroke-dasharray:none"
       d="m 419.08935,750.50551 c -3.4226,30.80332 -8.5565,47.91629 35.93722,51.33888 44.4937,3.4226 35.93722,-13.69037 73.58575,-1.7113 37.64854,11.97908 10.26779,8.55649 41.07111,10.26779"
       id="path4889"
       inkscape:connector-curvature="0"
       sodipodi:nodetypes="cssc" />
    <path
       style="fill:none;stroke:#000000;stroke-width:23.88677025;stroke-linecap:round;stroke-linejoin:round;stroke-miterlimit:4;stroke-opacity:1;stroke-dasharray:none"
       d="m 598.77549,771.04106 c 25.66943,-61.60667 35.93722,-135.19242 35.93722,-184.82003 0,-49.62759 -27.38074,-130.05852 -27.38074,-157.43927 0,-27.38074 11.97908,-59.89537 13.69037,-68.45186 1.71129,-8.55649 -13.69037,-34.22592 -32.51464,-23.95816 -18.82427,10.26779 -37.64853,-17.11294 -34.22592,-29.09202 3.42258,-11.97909 -6.8452,-15.40169 -1.7113,-29.09205 5.13388,-13.69038 -8.55649,-25.66944 -8.55649,-35.93722 0,-10.26778 -1.71128,-30.80334 22.24688,-37.64852 23.95814,-6.84519 20.53554,-6.8452 46.20497,-11.97908 27.05799,-5.41159 51.3389,29.09203 54.76151,47.9163 3.42258,18.82426 17.11295,44.4937 10.26776,53.05019 -6.84518,8.55648 -1.71129,18.82426 22.24687,25.66946 23.95814,6.84518 61.60667,27.38073 75.29705,49.62759 13.69036,22.24685 25.66944,77.00833 41.07111,102.67778 15.40166,25.66945 37.64851,100.96649 47.9163,135.19242 10.26776,34.22593 32.51463,92.41001 34.22592,114.65686 1.7113,22.24687 27.38075,22.24687 -10.26776,37.64853 -37.64854,15.40167 -15.40169,23.95817 -49.62762,35.93722 -34.22592,11.97909 -18.82426,1.71132 -78.71964,35.93725 -59.89536,34.22592 -49.62759,37.64851 -71.87444,49.62758"
       id="path4891"
       inkscape:connector-curvature="0"
       sodipodi:nodetypes="csssssssssssssssssssc" />
    <path
       style="fill:none;stroke:#000000;stroke-width:23.88677025;stroke-linecap:round;stroke-linejoin:round;stroke-miterlimit:4;stroke-opacity:1;stroke-dasharray:none"
       d="m 917.07663,769.32975 c 11.97908,27.38077 17.11295,87.27613 20.53556,111.23428 3.42258,23.95816 3.42258,83.85352 -11.97908,73.58575 -15.40167,-10.26779 -56.47278,-80.43093 -70.16315,-78.71964 -13.69037,1.71131 -47.91632,11.97908 -61.60669,32.51466 -13.69038,20.53555 -49.6276,32.51461 -88.98741,35.93719 -39.35983,3.42261 -66.74056,5.1339 -95.8326,0 -29.09204,-5.13387 -53.05019,-41.0711 -34.22593,-78.71962"
       id="path4893"
       inkscape:connector-curvature="0"
       sodipodi:nodetypes="cssssssc" />
    <path
       style="fill:none;stroke:#000000;stroke-width:23.88677025;stroke-linecap:round;stroke-linejoin:round;stroke-miterlimit:4;stroke-opacity:1;stroke-dasharray:none"
       d="m 694.60809,382.57675 c 6.84518,92.41002 15.40166,159.15059 1.71128,205.3556 -13.69036,46.20498 -65.02927,152.30537 -73.58574,172.84093 -8.55648,20.53555 -71.87446,65.02927 -63.31797,77.00835 8.55648,11.97906 8.55648,46.205 37.64852,6.84518 29.09205,-39.35982 42.78242,-51.3389 63.31797,-80.43094 20.53557,-29.09205 65.02926,-77.00835 73.58576,-99.25519 8.55647,-22.24685 27.38074,-104.3891 34.22593,-128.34724 6.84519,-23.95816 -10.26779,32.51464 8.55648,-47.9163"
       id="path4895"
       inkscape:connector-curvature="0" />
    <path
       style="fill:none;stroke:#000000;stroke-width:23.88677025;stroke-linecap:round;stroke-linejoin:round;stroke-miterlimit:4;stroke-opacity:1;stroke-dasharray:none"
       d="m 282.18562,805.26699 c -44.4937,131.76982 -41.07111,136.90371 -46.20499,150.59409 -5.13389,13.69037 8.55647,17.11296 47.9163,18.82426 39.35982,1.71129 114.65686,39.35976 114.65686,1.71129 0,-37.64851 11.97908,-63.31796 11.97908,-99.25518"
       id="path4897"
       inkscape:connector-curvature="0" />
    <path
       style="fill:none;stroke:#000000;stroke-width:23.88677025;stroke-linecap:round;stroke-linejoin:round;stroke-miterlimit:4;stroke-opacity:1;stroke-dasharray:none"
       d="m 234.26934,967.84016 c -6.8452,17.11295 -7.91651,39.55184 8.55647,44.49354 17.11298,5.134 49.6276,3.4228 80.43094,8.5567 61.60667,10.2678 65.02926,-5.1339 66.74055,-29.09208"
       id="path4899"
       inkscape:connector-curvature="0"
       sodipodi:nodetypes="cssc" />
    <path
       style="fill:none;stroke:#000000;stroke-width:23.88677025;stroke-linecap:round;stroke-linejoin:round;stroke-miterlimit:4;stroke-opacity:1;stroke-dasharray:none"
       d="m 424.22325,680.34234 c 18.82424,-1.71129 6.84518,37.64851 5.13388,75.29704"
       id="path4901"
       inkscape:connector-curvature="0"
       sodipodi:nodetypes="cc" />
  </g>
</svg>
