<?xml version="1.0" encoding="UTF-8" standalone="no"?>
<!-- Created with Inkscape (http://www.inkscape.org/) -->

<svg
   xmlns:dc="http://purl.org/dc/elements/1.1/"
   xmlns:cc="http://creativecommons.org/ns#"
   xmlns:rdf="http://www.w3.org/1999/02/22-rdf-syntax-ns#"
   xmlns:svg="http://www.w3.org/2000/svg"
   xmlns="http://www.w3.org/2000/svg"
   xmlns:sodipodi="http://sodipodi.sourceforge.net/DTD/sodipodi-0.dtd"
   xmlns:inkscape="http://www.inkscape.org/namespaces/inkscape"
   width="1000"
   height="1000"
   viewBox="0 0 1000 1000"
   id="svg1901"
   sodipodi:version="0.32"
   inkscape:version="0.48.2 r9819"
   sodipodi:docname="5.svg"
   version="1.1">
  <defs
     id="defs1903" />
  <sodipodi:namedview
     id="base"
     pagecolor="#ffffff"
     bordercolor="#666666"
     borderopacity="1.0"
     inkscape:pageopacity="0.0"
     inkscape:pageshadow="2"
     inkscape:zoom="0.7"
     inkscape:cx="779.67616"
     inkscape:cy="518.40883"
     inkscape:document-units="px"
     inkscape:current-layer="layer1"
     inkscape:window-width="1920"
     inkscape:window-height="1058"
     inkscape:window-x="-8"
     inkscape:window-y="-8"
     showgrid="false"
     inkscape:showpageshadow="false"
     inkscape:window-maximized="1" />
  <metadata
     id="metadata1906">
    <rdf:RDF>
      <cc:Work
         rdf:about="">
        <dc:format>image/svg+xml</dc:format>
        <dc:type
           rdf:resource="http://purl.org/dc/dcmitype/StillImage" />
        <dc:title></dc:title>
      </cc:Work>
    </rdf:RDF>
  </metadata>
  <g
     inkscape:label="Taso 1"
     inkscape:groupmode="layer"
     id="layer1"
     transform="translate(0,-52.362183)">
    <path
       style="fill:none;stroke:#000000;stroke-width:21.9130497;stroke-linecap:round;stroke-linejoin:round;stroke-miterlimit:4;stroke-opacity:1;stroke-dasharray:none"
       d="m 557.06438,103.31834 c 25.90328,-12.559161 33.75275,-17.268834 62.01087,-16.483897 28.25812,0.784954 47.8818,5.494643 51.80653,19.623697 3.92475,14.12905 12.55916,48.66675 3.92475,65.15065 -8.63442,16.48389 -15.69895,14.914 -17.26885,25.90327 -1.5699,10.98926 0,12.55916 17.26885,18.05379 17.26884,5.49464 32.9678,27.47317 39.24738,36.89254 6.27958,9.41937 23.54843,43.17211 24.33337,60.44096 0.78495,17.26885 5.49464,70.64528 5.49464,90.26897 0,19.6237 -1.56991,63.58076 -2.35485,91.05393 -0.78495,27.47316 -14.914,47.09684 -19.62369,63.58075 -4.70969,16.4839 -12.55916,54.16138 -26.68821,67.50549 -14.12906,13.3441 -40.81728,17.26884 -48.66675,38.46242 -7.84948,21.19359 -21.19359,57.30118 -29.82802,65.93561 -8.63442,8.63442 -23.54843,21.97853 -27.47316,31.3979 -3.92474,9.41937 -9.41936,17.26885 -2.35485,29.04305 7.06454,11.77423 36.1076,39.24739 40.81728,52.59149 4.70969,13.34411 14.12906,60.44098 15.69895,77.70981 1.5699,17.26885 -0.78494,40.03233 9.41938,51.80655 10.20431,11.77425 29.04305,21.97858 25.90327,33.75278 -3.1398,11.7741 0.78494,23.5484 -14.91401,24.3334 -15.69895,0.7848 -36.10759,-3.1398 -65.15064,-0.785 -29.04308,2.3548 -55.73129,-3.9247 -72.21518,-0.7849 -16.4839,3.1397 -23.54843,-3.1398 -3.92474,-16.4839 15.05562,-10.2378 27.47317,-0.785 47.09684,-8.6344 19.6237,-7.84958 39.24739,-14.12915 25.90328,-31.39798 -13.34411,-17.26885 -20.40863,-46.31191 -42.38717,-73.78507 -21.97853,-27.47317 -26.68821,-53.37644 -34.53769,-65.93561 -7.84948,-12.55916 -36.10759,-21.19358 -29.82801,-50.23664 6.27958,-29.04305 11.77421,-62.01086 21.97853,-83.98939 10.20433,-21.97854 18.83874,-37.67748 27.47316,-59.65602 8.63443,-21.97852 14.12907,-19.62368 14.12907,-34.53768 0,-14.91401 -3.92474,-51.80655 -17.26885,-72.21518 -13.34411,-20.40864 -43.95706,-66.72054 -51.80655,-75.35497 -7.84947,-8.63442 -17.26883,-44.74201 -28.2581,-55.73128 -10.98927,-10.98927 0.78495,-29.04306 -21.97854,-21.97853 -22.76348,7.06452 -48.66675,2.35483 -66.72054,-2.35484 -18.05379,-4.70969 -36.10759,-13.34411 -61.22591,-25.11832 -25.11832,-11.77422 -29.04306,-21.97854 -54.16137,-24.33338 -25.11833,-2.35485 -39.24739,0 -61.22592,-2.35485 -21.97854,-2.35484 -51.80655,3.1398 -49.4517,-10.20432 2.35484,-13.34411 8.63442,-64.36569 18.0538,-73.00011 9.41936,-8.63443 25.90326,-46.31191 31.3979,-56.51623 5.49463,-10.20431 17.26885,-18.0538 22.76348,-14.12906 5.49463,3.92475 -3.13978,16.48391 -2.35485,27.47316 0.78496,10.98927 -12.55916,14.91401 2.35485,20.40865"
       id="path4914"
       inkscape:connector-curvature="0"
       sodipodi:nodetypes="cssssssssssssssssssssssssssssssssssssssssssssc" />
    <path
       style="fill:none;stroke:#000000;stroke-width:21.9130497;stroke-linecap:round;stroke-linejoin:round;stroke-miterlimit:4;stroke-opacity:1;stroke-dasharray:none"
       d="m 560.98914,104.88825 c 3.13978,11.77421 2.35482,14.914 -2.35485,20.40863 -4.70969,5.49463 1.56989,12.55916 2.35485,20.40863 0.78493,7.84949 -2.35485,13.34412 -6.27959,21.97854 -3.92475,8.63443 -1.5699,14.91401 1.5699,26.68822 3.13978,11.77422 7.06451,19.62369 19.62367,24.33338 12.55918,4.70967 10.98927,2.35484 16.48392,14.12905 5.49462,11.77421 14.12905,22.76348 -5.49465,22.76348 -19.62367,0 -32.96779,7.06453 -47.88179,14.914 -14.91401,7.84947 -30.47829,2.75889 -48.53208,11.3933 -18.05378,8.63442 -43.26058,10.06965 -51.11005,13.99438"
       id="path4916"
       inkscape:connector-curvature="0"
       sodipodi:nodetypes="csssssssssc" />
    <path
       style="fill:none;stroke:#000000;stroke-width:21.9130497;stroke-linecap:round;stroke-linejoin:round;stroke-miterlimit:4;stroke-opacity:1;stroke-dasharray:none"
       d="m 260.35421,274.43692 c 47.88181,8.63442 40.81727,6.27958 87.91413,12.55916 47.09685,6.27958 46.31191,10.98927 76.1399,12.55916"
       id="path4918"
       inkscape:connector-curvature="0" />
    <path
       style="fill:none;stroke:#000000;stroke-width:21.9130497;stroke-linecap:round;stroke-linejoin:round;stroke-miterlimit:4;stroke-opacity:1;stroke-dasharray:none"
       d="m 254.85958,276.00681 c 38.46243,13.34411 43.95706,11.77422 75.35496,15.69896 31.3979,3.92473 35.32264,2.35484 68.29044,6.27958 32.9678,3.92473 59.65601,1.56989 66.72054,5.49463 7.06454,3.92475 12.55916,6.27958 36.10759,29.04307 23.54843,22.76347 41.60222,45.52695 54.16138,58.08611 12.55916,12.55916 49.45171,63.58076 56.51623,80.84961"
       id="path4920"
       inkscape:connector-curvature="0" />
    <path
       style="fill:none;stroke:#000000;stroke-width:21.9130497;stroke-linecap:round;stroke-linejoin:round;stroke-miterlimit:4;stroke-opacity:1;stroke-dasharray:none"
       d="m 203.05305,233.61965 c -21.97854,10.20432 -29.82801,25.90326 -14.91401,22.76348 14.91401,-3.1398 -13.34411,3.13978 -14.12907,11.77421 -0.78493,8.63442 14.12907,15.69896 29.04308,5.49464 14.91399,-10.20433 11.7742,-1.56991 29.82799,-6.27958 18.05381,-4.70969 18.83874,-0.78495 26.68823,2.35483"
       id="path4922"
       inkscape:connector-curvature="0" />
    <path
       style="fill:none;stroke:#000000;stroke-width:21.9130497;stroke-linecap:round;stroke-linejoin:round;stroke-miterlimit:4;stroke-opacity:1;stroke-dasharray:none"
       d="m 214.0423,220.27554 c 14.91401,11.77421 18.83874,3.13978 29.82801,14.91401 10.98927,11.7742 -0.78494,14.914 13.34412,25.11832"
       id="path4924"
       inkscape:connector-curvature="0" />
    <path
       style="fill:none;stroke:#000000;stroke-width:21.9130497;stroke-linecap:round;stroke-linejoin:round;stroke-miterlimit:4;stroke-opacity:1;stroke-dasharray:none"
       d="m 619.8602,317.60904 c 3.13979,52.59149 3.13979,79.2797 3.92474,120.88192 0.78494,41.60223 3.92473,62.01087 -1.56991,84.77434 -5.49463,22.76348 -15.69894,70.64528 -19.62368,87.12919 -3.92473,16.4839 -10.98927,37.67748 -32.18285,39.24737 -21.19359,1.56989 -29.82801,7.84947 -29.82801,20.40863 0,12.55916 -4.70968,29.04308 8.63442,35.32266 25.85297,12.16608 18.83874,10.98925 29.82801,15.69894 10.98927,4.70969 34.5377,9.41938 35.32264,-14.12905 0.78495,-23.54843 7.06453,-30.61297 17.26885,-51.80655 10.20432,-21.19359 13.34411,-42.38716 21.97854,-69.07538 8.63441,-26.68822 11.77421,-67.5055 18.05379,-91.83886 6.27958,-24.33339 18.05378,-80.06466 18.05378,-102.82813 0,-22.7635 -3.92473,-40.81728 8.63443,-60.44098"
       id="path4926"
       inkscape:connector-curvature="0"
       sodipodi:nodetypes="cssssssssssssc" />
  </g>
</svg>
