<?xml version="1.0" encoding="UTF-8" standalone="no"?>
<!-- Created with Inkscape (http://www.inkscape.org/) -->

<svg
   xmlns:dc="http://purl.org/dc/elements/1.1/"
   xmlns:cc="http://creativecommons.org/ns#"
   xmlns:rdf="http://www.w3.org/1999/02/22-rdf-syntax-ns#"
   xmlns:svg="http://www.w3.org/2000/svg"
   xmlns="http://www.w3.org/2000/svg"
   xmlns:sodipodi="http://sodipodi.sourceforge.net/DTD/sodipodi-0.dtd"
   xmlns:inkscape="http://www.inkscape.org/namespaces/inkscape"
   width="1000"
   height="1000"
   viewBox="0 0 1000 1000"
   id="svg1901"
   sodipodi:version="0.32"
   inkscape:version="0.48.2 r9819"
   sodipodi:docname="6.svg"
   version="1.1">
  <defs
     id="defs1903" />
  <sodipodi:namedview
     id="base"
     pagecolor="#ffffff"
     bordercolor="#666666"
     borderopacity="1.0"
     inkscape:pageopacity="0.0"
     inkscape:pageshadow="2"
     inkscape:zoom="0.7"
     inkscape:cx="673.68392"
     inkscape:cy="465.13187"
     inkscape:document-units="px"
     inkscape:current-layer="layer1"
     inkscape:window-width="1920"
     inkscape:window-height="1058"
     inkscape:window-x="-8"
     inkscape:window-y="-8"
     showgrid="false"
     inkscape:showpageshadow="false"
     inkscape:window-maximized="1" />
  <metadata
     id="metadata1906">
    <rdf:RDF>
      <cc:Work
         rdf:about="">
        <dc:format>image/svg+xml</dc:format>
        <dc:type
           rdf:resource="http://purl.org/dc/dcmitype/StillImage" />
        <dc:title></dc:title>
      </cc:Work>
    </rdf:RDF>
  </metadata>
  <g
     inkscape:label="Taso 1"
     inkscape:groupmode="layer"
     id="layer1"
     transform="translate(0,-52.362183)">
    <path
       style="fill:none;stroke:#000000;stroke-width:10.33232689;stroke-linecap:round;stroke-linejoin:round;stroke-miterlimit:4;stroke-opacity:1;stroke-dasharray:none"
       d="m 876.06619,657.64952 c -40.82684,10.4684 -57.00954,21.6511 -80.04007,23.74475 -23.03054,2.09373 -34.54581,3.14059 -63.85738,9.42162 -29.31156,6.28103 -35.59258,15.70265 -62.81043,28.2647 -27.21791,12.56213 -40.82683,12.56213 -77.46629,19.89002 -36.63948,7.32789 -42.92052,3.14051 -65.95104,6.28103 -23.03051,3.14052 -43.96735,1.04686 -79.55996,9.42155 -35.59262,8.37475 -63.85734,15.70264 -83.74733,27.21791 -19.88998,11.51527 -50.24839,33.49894 -66.99786,36.63945 -16.74946,3.14052 -42.92051,5.23425 -72.23206,8.37476 -29.31157,3.14051 -47.10788,1.04679 -56.52945,9.42154 -9.42157,8.37475 2.53395,21.94696 -21.5434,28.22806 -24.07736,6.28103 -43.36079,4.22402 -64.297617,2.13037 C 60.096478,864.59156 41.400086,859.43073 29.884825,853.1497 18.369564,846.86867 8.8012403,820.6242 10.894921,815.39004 c 2.093681,-5.23424 6.427803,-22.13044 24.224114,-12.7089 17.796304,9.42162 40.680065,17.94306 53.24216,9.56839 12.562095,-8.37475 32.452095,-12.56214 64.904175,-25.12419 32.4521,-12.56213 63.85734,-31.40529 83.74733,-33.49895 19.88999,-2.09372 57.57629,-17.79629 73.27891,-23.03053 15.70262,-5.23424 33.49893,-24.07732 64.90419,-41.8737 31.40525,-17.79629 37.68629,-17.79629 72.23206,-27.21784 34.54577,-9.42161 37.6863,-10.4684 49.20156,-19.89002 11.51525,-9.42155 32.45209,-24.07732 1.04683,-46.06099 -31.40524,-21.98368 -45.01419,-43.96736 -56.52943,-59.67 -11.51526,-15.70265 0,-35.59259 -40.82683,-45.01421 -40.82682,-9.42154 -62.8105,-9.42154 -86.88785,-33.49887 -24.07736,-24.0774 -40.82682,-39.78004 -60.71682,-52.3421 -19.88998,-12.56212 -41.87366,-33.49894 -50.24839,-30.35842 -8.37473,3.14051 -21.98368,11.51526 -28.26472,16.7495 -6.28105,5.23417 -17.79631,2.09366 -23.03051,-16.7495 -5.23422,-18.84316 -26.17106,-62.81052 -28.26473,-81.65368 -2.09368,-18.84308 -10.46842,-41.87362 -5.23422,-53.38888 5.23422,-11.51527 10.46843,-10.46841 18.84316,7.32789 8.37473,17.7963 17.7963,28.2647 31.40525,35.5926 13.60894,7.32789 45.01419,31.40529 58.62312,37.68631 13.60895,6.28103 30.35841,16.74944 55.48261,33.49894 25.12419,16.74944 50.2484,33.49895 76.41944,38.73312 26.17104,5.23423 36.63945,14.65577 53.38892,18.84315 16.74946,4.18737 29.31157,12.56214 55.4826,25.12419 26.17104,12.56213 63.85734,32.45208 74.32576,46.06107 10.46842,13.60892 43.96732,33.49894 55.48258,47.10786 11.51527,13.60892 30.35843,34.54574 50.24845,35.5926 19.88995,1.04686 71.18518,-8.37476 95.26259,-17.7963 24.07732,-9.42154 69.09153,-29.31157 79.55994,-31.40522 10.46841,-2.09373 19.88996,-1.04686 29.31157,-11.51526 9.42155,-10.46841 -8.37475,-13.609 -6.28103,-24.0774 2.09365,-10.46841 1.04679,-35.5926 1.04679,-35.5926 0,0 -5.23417,-6.28103 0,-11.51527 5.23424,-5.23416 11.51527,-13.60891 16.74951,-25.12418 5.23417,-11.51527 2.09365,-21.98368 12.56205,-32.45208 10.46841,-10.46841 32.45208,-12.56213 48.15473,-10.46841 15.70264,2.09365 38.73318,6.28103 49.20159,14.65578 10.4684,8.37468 14.65578,20.93682 14.65578,36.63946 0,15.70257 -8.37475,39.77997 -17.7963,47.10786 -9.42161,7.32789 -26.17105,17.7963 -28.26477,33.49894 -2.09366,15.70257 0,26.17106 2.09372,49.20152 2.09365,23.03053 13.60892,60.71685 10.46841,76.41942 -3.14052,15.70265 -14.65579,66.99789 -18.84316,79.56002 -4.18738,12.56205 -14.65579,39.77996 -15.70265,65.95102 -1.04678,26.17105 5.23424,66.99781 -9.42155,90.02835 -14.65577,23.03053 -11.51527,52.3421 -18.84315,62.8105 -7.32789,10.4684 -23.03053,19.89002 -28.2647,32.4521 -5.23424,12.5621 -6.2811,6.281 -8.37476,0 -2.09365,-6.28101 -4.18737,-4.1874 -13.60892,7.3279 -9.42161,11.5153 -23.03054,7.3279 -11.51527,-9.4216 11.51527,-16.74948 12.56207,-16.74948 -1.04686,-8.37473 -13.60892,8.37473 -41.87363,24.07733 -20.93681,2.09366 20.93681,-21.98368 1.99532,-24.02812 -5.33257,-11.46607 -7.3279,12.56213 -31.73781,22.07043 -17.08202,5.32095 14.65578,-16.74952 41.66146,-33.3712 19.79161,-30.30931 -10.5551,1.47777 -42.62307,-5.69998 -22.50122,-6.46606 11.31853,-0.43092 24.07734,-13.60892 36.63946,-9.42154 12.56207,4.18738 39.77998,6.28103 45.01414,-8.37475 5.23425,-14.65579 28.26478,-113.05889 25.12427,-133.9957 -3.14059,-20.93688 -3.54686,-65.71685 -12.96849,-92.9347"
       id="path4939"
       inkscape:connector-curvature="0"
       sodipodi:nodetypes="cssssssssssssssssssssssssssssssssssssssssssssssccssssssssssssssssssssssssssc" />
    <path
       style="fill:none;stroke:#000000;stroke-width:10.33232689;stroke-linecap:round;stroke-linejoin:round;stroke-miterlimit:4;stroke-opacity:1;stroke-dasharray:none"
       d="m 803.35401,684.53486 c -7.32789,32.45208 -7.32789,55.48254 -13.60892,63.8573 -6.2811,8.37475 -14.65579,8.37475 -38.73318,0 -24.07733,-8.37476 -40.82684,-9.42155 -45.01414,-3.14052 -4.18738,6.28103 -3.14059,18.84316 5.23417,16.74944 8.37475,-2.09366 12.56213,4.18738 25.12418,3.14058 12.56213,-1.04686 0,2.09366 -5.23416,7.32789 -5.23425,5.23417 5.23416,9.42155 24.07732,8.37469 18.84316,-1.0468 24.0774,15.70264 31.40529,10.4684 7.32789,-5.23416 31.40522,-24.07732 46.06101,-39.77997 14.65578,-15.70257 31.40521,-45.01413 48.15473,-74.3257"
       id="path4941"
       inkscape:connector-curvature="0" />
  </g>
</svg>
