<?xml version="1.0" encoding="UTF-8" standalone="no"?>
<!-- Created with Inkscape (http://www.inkscape.org/) -->

<svg
   xmlns:dc="http://purl.org/dc/elements/1.1/"
   xmlns:cc="http://creativecommons.org/ns#"
   xmlns:rdf="http://www.w3.org/1999/02/22-rdf-syntax-ns#"
   xmlns:svg="http://www.w3.org/2000/svg"
   xmlns="http://www.w3.org/2000/svg"
   xmlns:sodipodi="http://sodipodi.sourceforge.net/DTD/sodipodi-0.dtd"
   xmlns:inkscape="http://www.inkscape.org/namespaces/inkscape"
   width="1000"
   height="1000"
   viewBox="0 0 1000 1000"
   id="svg1901"
   sodipodi:version="0.32"
   inkscape:version="0.48.2 r9819"
   sodipodi:docname="7.svg"
   version="1.1">
  <defs
     id="defs1903" />
  <sodipodi:namedview
     id="base"
     pagecolor="#ffffff"
     bordercolor="#666666"
     borderopacity="1.0"
     inkscape:pageopacity="0.0"
     inkscape:pageshadow="2"
     inkscape:zoom="0.49497475"
     inkscape:cx="815.31936"
     inkscape:cy="208.56496"
     inkscape:document-units="px"
     inkscape:current-layer="layer1"
     inkscape:window-width="1920"
     inkscape:window-height="1058"
     inkscape:window-x="-8"
     inkscape:window-y="-8"
     showgrid="false"
     inkscape:showpageshadow="false"
     inkscape:window-maximized="1" />
  <metadata
     id="metadata1906">
    <rdf:RDF>
      <cc:Work
         rdf:about="">
        <dc:format>image/svg+xml</dc:format>
        <dc:type
           rdf:resource="http://purl.org/dc/dcmitype/StillImage" />
        <dc:title></dc:title>
      </cc:Work>
    </rdf:RDF>
  </metadata>
  <g
     inkscape:label="Taso 1"
     inkscape:groupmode="layer"
     id="layer1"
     transform="translate(0,-52.362183)">
    <path
       style="fill:none;stroke:#000000;stroke-width:21.28061104;stroke-linecap:round;stroke-linejoin:round;stroke-miterlimit:4;stroke-opacity:1;stroke-dasharray:none"
       d="m 470.974,232.26565 c 19.4048,58.21444 24.79503,73.30707 31.26331,83.00947 6.46826,9.7024 2.15609,125.05322 2.15609,134.75564 0,9.70241 -9.70241,35.57548 -6.46828,43.12179 3.23414,7.54632 11.85851,25.87309 18.32677,23.717 6.46826,-2.15609 35.57549,-9.7024 35.57549,-21.56089 0,-11.85851 -10.78046,-10.78046 -5.39023,-54.98032 5.39023,-44.19984 2.15609,-109.96059 2.15609,-133.67757 0,-23.717 4.31218,-79.77535 -5.39023,-93.78993 -9.7024,-14.01459 -19.40481,-33.4194 -38.80961,-38.80963 -19.40482,-5.39022 -31.26332,-14.01457 -44.19986,-33.41938 -12.93654,-19.40482 -29.10721,-50.668127 -35.57549,-54.980318 -6.46826,-4.312176 -40.9657,-14.014579 -48.51202,-3.234124 -7.54631,10.78044 -21.56091,38.809622 -28.02917,53.902252 -6.46828,15.09263 -2.15609,24.79503 6.46826,29.10722 8.62437,4.31218 3.23414,11.85849 15.09263,12.93655 11.85851,1.07803 18.32677,7.54631 19.40483,10.78044 1.07803,3.23414 -4.31219,7.54631 6.46826,10.78045 10.78046,3.23414 15.09263,3.23414 21.5609,7.54632 6.46828,4.31217 21.56091,-7.54632 22.63894,-12.93655 1.07805,-5.39022 6.46828,-4.31217 7.54632,5.39023 1.07805,9.7024 0,18.32677 -7.54632,34.49744 -7.54631,16.17068 -10.78044,42.04377 -11.85849,60.37052 -1.07803,18.32677 -1.07803,67.91684 1.07805,87.32166 2.15609,19.40481 7.54632,50.66811 4.31218,63.60465 -3.23414,12.93654 -10.78046,43.12181 -22.63895,56.05835 -11.85849,12.93654 -21.56089,36.65353 -34.49744,52.82421 -12.93654,16.17068 -25.87308,42.04375 -32.34134,53.90226 -6.46828,11.85849 -4.3122,46.35593 3.23412,58.21442 7.54631,11.8585 35.57549,45.27789 46.35594,53.90226 10.78046,8.62436 5.39023,8.35484 23.717,16.97921"
       id="path4954"
       inkscape:connector-curvature="0"
       sodipodi:nodetypes="csssssssssssssssssssssssssssssc" />
    <path
       style="fill:none;stroke:#000000;stroke-width:21.28061104;stroke-linecap:round;stroke-linejoin:round;stroke-miterlimit:4;stroke-opacity:1;stroke-dasharray:none"
       d="m 538.89084,590.17662 c -19.40481,38.80961 -31.26332,71.15098 -43.12181,105.64841 -11.85849,34.49744 -10.78045,65.76075 -15.09263,88.3997 -4.31218,22.63895 -11.85849,42.04375 -23.71698,65.76075 -11.85851,23.71699 -21.56091,38.80962 -30.18526,65.76074 -8.62437,26.95114 -10.78046,43.1218 -9.70242,54.98031 1.07805,11.85857 -14.01458,22.63893 -48.51202,30.18527 -34.49745,7.5463 -60.37052,15.0926 -72.22903,7.5463 -11.85849,-7.5463 -22.63895,-22.63895 -10.78044,-26.95107 11.85849,-4.31224 36.65353,-8.62441 50.66812,-23.71704 14.01458,-15.09263 32.34135,-59.29249 35.57547,-64.68272 3.23414,-5.39021 24.79505,-34.49744 26.95114,-54.98029 2.15609,-20.48286 16.17067,-84.08751 19.40481,-109.9606 3.23414,-25.87308 9.7024,-88.39969 11.85849,-108.88255 2.15609,-20.48286 7.54632,-37.73158 6.46828,-67.91684"
       id="path4956"
       inkscape:connector-curvature="0" />
    <path
       style="fill:none;stroke:#000000;stroke-width:21.28061104;stroke-linecap:round;stroke-linejoin:round;stroke-miterlimit:4;stroke-opacity:1;stroke-dasharray:none"
       d="m 431.89486,604.46072 c -14.01458,24.79503 -26.41211,35.03646 -22.09993,45.81691 4.31219,10.78046 4.04268,8.62435 14.82312,18.59628"
       id="path4958"
       inkscape:connector-curvature="0"
       sodipodi:nodetypes="csc" />
    <path
       style="fill:none;stroke:#000000;stroke-width:21.28061104;stroke-linecap:round;stroke-linejoin:round;stroke-miterlimit:4;stroke-opacity:1;stroke-dasharray:none"
       d="m 486.06663,743.25901 c 31.26331,38.80963 48.51203,68.9949 57.13638,86.24361 8.62437,17.24872 11.85851,35.57549 8.62437,45.2779 -3.23414,9.7024 6.46826,12.93654 -35.57549,9.7024 -42.04375,-3.23414 -33.4194,-2.15609 -75.46316,-3.23414"
       id="path4960"
       inkscape:connector-curvature="0" />
    <path
       style="fill:none;stroke:#000000;stroke-width:21.28061104;stroke-linecap:round;stroke-linejoin:round;stroke-miterlimit:4;stroke-opacity:1;stroke-dasharray:none"
       d="m 475.28617,811.17585 c 12.93655,14.01458 18.32677,22.63895 2.15609,26.95113 -16.17067,4.31219 50.66812,6.46827 -17.24872,4.31219"
       id="path4962"
       inkscape:connector-curvature="0" />
    <path
       style="fill:none;stroke:#000000;stroke-width:21.28061104;stroke-linecap:round;stroke-linejoin:round;stroke-miterlimit:4;stroke-opacity:1;stroke-dasharray:none"
       d="m 427.85219,927.60472 c 9.70241,42.04376 11.85849,79.77528 11.85849,101.33618"
       id="path4964"
       inkscape:connector-curvature="0" />
    <path
       style="fill:none;stroke:#000000;stroke-width:21.28061104;stroke-linecap:round;stroke-linejoin:round;stroke-miterlimit:4;stroke-opacity:1;stroke-dasharray:none"
       d="m 553.98347,846.75134 c 40.96571,0 51.74615,1.07804 62.52661,-2.15609 10.78045,-3.23413 10.78045,-37.73157 18.32677,-68.99489 7.54631,-31.26329 7.54631,-79.77533 14.01458,-90.55578 6.46828,-10.78046 -8.62435,-22.63895 11.8585,2.15609 20.48285,24.79503 34.49744,-7.54632 23.71699,56.05834 -10.78046,63.60467 -25.87309,238.24802 -23.71699,263.04289"
       id="path4966"
       inkscape:connector-curvature="0" />
    <path
       style="fill:none;stroke:#000000;stroke-width:21.28061104;stroke-linecap:round;stroke-linejoin:round;stroke-miterlimit:4;stroke-opacity:1;stroke-dasharray:none"
       d="m 434.32047,909.27795 c 57.13638,-1.07805 101.33623,-3.23413 139.0678,-2.15608 37.73158,1.07803 54.9803,2.15608 65.76075,0 10.78046,-2.15609 12.93655,-32.34135 16.17069,-61.44858 3.23412,-29.10721 12.93654,-113.19473 12.93654,-119.66299 0,-6.46828 -5.39023,-1.07806 -17.24873,-15.09264"
       id="path4968"
       inkscape:connector-curvature="0" />
    <path
       style="fill:none;stroke:#000000;stroke-width:21.28061104;stroke-linecap:round;stroke-linejoin:round;stroke-miterlimit:4;stroke-opacity:1;stroke-dasharray:none"
       d="m 633.7588,849.98548 c 9.7024,16.17067 -5.39023,-16.17068 12.93654,20.48285"
       id="path4970"
       inkscape:connector-curvature="0" />
    <path
       style="fill:none;stroke:#000000;stroke-width:21.28061104;stroke-linecap:round;stroke-linejoin:round;stroke-miterlimit:4;stroke-opacity:1;stroke-dasharray:none"
       d="m 467.73986,1020.3167 c -14.01458,-65.76085 -24.79504,-66.8389 3.23414,-66.8389 28.02917,0 141.2239,-4.31218 155.23848,-4.31218 14.0146,0 8.62437,-19.40481 8.62437,23.717 0,43.12178 1.07804,28.02918 2.15609,59.29248"
       id="path4972"
       inkscape:connector-curvature="0" />
    <path
       style="fill:none;stroke:#000000;stroke-width:21.28061104;stroke-linecap:round;stroke-linejoin:round;stroke-miterlimit:4;stroke-opacity:1;stroke-dasharray:none"
       d="m 466.66182,970.72653 c 61.44856,-3.23414 137.98977,-2.1561 169.25307,-2.1561"
       id="path4974"
       inkscape:connector-curvature="0" />
    <path
       style="fill:none;stroke:#000000;stroke-width:21.28061104;stroke-linecap:round;stroke-linejoin:round;stroke-miterlimit:4;stroke-opacity:1;stroke-dasharray:none"
       d="m 465.58377,989.05335 c 90.55578,-1.07807 118.58496,-9.70247 164.9409,-4.31227"
       id="path4976"
       inkscape:connector-curvature="0" />
    <path
       style="fill:none;stroke:#000000;stroke-width:21.28061104;stroke-linecap:round;stroke-linejoin:round;stroke-miterlimit:4;stroke-opacity:1;stroke-dasharray:none"
       d="m 556.67857,443.02347 c 16.7097,28.56819 17.78776,82.47045 9.16339,96.48503 -8.62435,14.01458 -10.24142,20.48286 -23.71698,45.27789"
       id="path4978"
       inkscape:connector-curvature="0" />
  </g>
</svg>
